# xmcd
#
# Track frame offsets: 
#        150
#        17739
#        33723
#        46423
#        52735
#        67419
#        84617
#        98812
#        110149
#        121481
#        136598
#        142624
#        148392
#
# Disc length: 2095 seconds
#
# Revision: 3
# Processed by: cddbd v1.5.2PL0 Copyright (c) Steve Scherf et al.
# Submitted via: ExactAudioCopyFreeDBPlugin 1.0
#
DISCID=bc082d0d
DTITLE=Pino Daniele - Iguana Cafè: Latin Blues e Melodie
DYEAR=2005
DGENRE=Blues - Latin Pop
TTITLE0=Narcisita In Azione
TTITLE1=Pensando Amor
TTITLE2=Maria
TTITLE3=Marì
TTITLE4=Indifferentemente Un Ricordo
TTITLE5=It's Now Or Never
TTITLE6=Ma Che Tempo Fa
TTITLE7=Occhi Che Sanno Parlare
TTITLE8=Melody
TTITLE9=Patricia
TTITLE10=Promesse Da Marinaio
TTITLE11=Serenata A Fronn' 'E Limone
TTITLE12=Voci Sospese
EXTD=
EXTT0=
EXTT1=
EXTT2=
EXTT3=
EXTT4=
EXTT5=
EXTT6=
EXTT7=
EXTT8=
EXTT9=
EXTT10=
EXTT11=
EXTT12=
PLAYORDER=
